<?xml version="1.0" encoding="UTF-8"?>
<svg width="24px" height="24px" viewBox="0 0 24 24" version="1.1" xmlns="http://www.w3.org/2000/svg">
    <g stroke="none" stroke-width="1" fill="none" fill-rule="evenodd">
        <path d="M12,2.5 L3,9.5 V21 C3,21.5522847 3.44771525,22 4,22 H9V15 C9,13.8954305 9.8954305,13 11,13 H13 C14.1045695,13 15,13.8954305 15,15 V22 H20 C20.5522847,22 21,21.5522847 21,21 V9.5 L12,2.5 Z M12,0.5 L23,9.5 V21 C23,22.6568542 21.6568542,24 20,24 H4 C2.34314575,24 1,22.6568542 1,21 V9.5 L12,0.5 Z" fill="#FFFFFF" fill-rule="nonzero"></path>
    </g>
</svg>
