<?xml version="1.0" encoding="UTF-8"?>
<svg width="24px" height="24px" viewBox="0 0 24 24" version="1.1" xmlns="http://www.w3.org/2000/svg">
    <g stroke="none" stroke-width="1" fill="none" fill-rule="evenodd">
        <path d="M4.00246167,6.99956024 L2.00099075,2.99956024 L1,2.99956024 C0.44771525,2.99956024 0,2.55184499 0,1.99956024 C0,1.44727549 0.44771525,0.999560235 1,0.999560235 L2.527,0.999560235 C2.83869296,0.999560235 3.12571656,1.16976066 3.28270117,1.44471912 L5.99900925,6.99956024 L20.0850422,6.99956024 L22.7071068,1.70710678 C22.8946432,1.31658249 23.3715263,1.20558882 23.7620606,1.39312528 C24.1525949,1.58066175 24.2635886,2.05754486 24.0760521,2.44806916 L21.2928932,8.29201371 C21.1478057,8.58289935 20.8412297,8.76790366 20.5092167,8.77705612 L4.5,8.77705612 C4.22385763,8.77705612 4,8.55319849 4,8.27705612 C4,8.16818388 4.03574502,8.06230661 4.10246167,7.97705612 L4.00246167,6.99956024 Z M7,21 C5.8954305,21 5,20.1045695 5,19 C5,17.8954305 5.8954305,17 7,17 C8.1045695,17 9,17.8954305 9,19 C9,20.1045695 8.1045695,21 7,21 Z M19,21 C17.8954305,21 17,20.1045695 17,19 C17,17.8954305 17.8954305,17 19,17 C20.1045695,17 21,17.8954305 21,19 C21,20.1045695 20.1045695,21 19,21 Z" fill="#FFFFFF"></path>
    </g>
</svg>
